<svg width="1235" height="245" viewBox="0 0 1235 245" fill="none" xmlns="http://www.w3.org/2000/svg">
<path opacity="0.1" d="M982 122.85C982 131.02 979.97 139.11 976.025 146.658C972.08 154.206 966.297 161.064 959.008 166.841C951.718 172.618 943.065 177.2 933.541 180.327C924.017 183.453 913.809 185.063 903.5 185.062C893.191 185.062 882.983 183.453 873.459 180.327C863.935 177.2 855.282 172.618 847.992 166.841C840.703 161.064 834.92 154.206 830.975 146.658C827.03 139.11 825 131.02 825 122.85L903.5 122.85H982Z" fill="white"/>
<rect opacity="0.1" x="1089" y="48.8252" width="124.425" height="167" transform="rotate(90 1089 48.8252)" fill="white"/>
<path opacity="0.07" d="M951 218.138L1023.99 159.786L1088 105.525L1088 218.138L951 218.138Z" fill="white"/>
<path opacity="0.2" d="M1235 0L1235 112.613L1088 112.612L1088 -3.40735e-06L1235 0Z" fill="white"/>
<path opacity="0.2" d="M1132 12.6001L1057.95 64.0151L993 111.825L993 12.6001L1132 12.6001Z" fill="white"/>
<circle cx="573.818" cy="108.961" r="55.8175" transform="rotate(-90 573.818 108.961)" fill="white" fill-opacity="0.1"/>
<circle cx="681.128" cy="95.272" r="56.1284" transform="rotate(-90 681.128 95.272)" fill="white" fill-opacity="0.1"/>
<path opacity="0.1" d="M842 200.144C842 192.002 840.396 183.939 837.281 176.417C834.165 168.895 829.598 162.06 823.841 156.303C818.083 150.546 811.249 145.979 803.726 142.863C796.204 139.747 788.142 138.144 780 138.144C771.858 138.144 763.796 139.747 756.274 142.863C748.751 145.979 741.917 150.546 736.159 156.303C730.402 162.06 725.835 168.895 722.719 176.417C719.604 183.939 718 192.002 718 200.144L780 200.144L842 200.144Z" fill="white"/>
<path opacity="0.1" d="M879.785 28C874.007 28 868.285 29.1381 862.947 31.3493C857.609 33.5605 852.758 36.8015 848.672 40.8873C844.587 44.9731 841.346 49.8236 839.134 55.1619C836.923 60.5003 835.785 66.2219 835.785 72C835.785 77.7782 836.923 83.4998 839.134 88.8381C841.346 94.1764 844.587 99.0269 848.672 103.113C852.758 107.198 857.609 110.44 862.947 112.651C868.285 114.862 874.007 116 879.785 116L879.785 72L879.785 28Z" fill="white"/>
<rect opacity="0.2" x="716" y="118.144" width="83" height="109" transform="rotate(-90 716 118.144)" fill="white"/>
<path d="M632 165.801L692.018 107.426L744.657 53.1435L744.657 165.801L632 165.801Z" fill="white" fill-opacity="0.15"/>
<path d="M698.658 132.144L638.641 190.519L586.001 244.801L586.001 132.144L698.658 132.144Z" fill="white" fill-opacity="0.15"/>
<path d="M-6.17405e-06 52C22.5434 52 44.1635 62.1669 60.1041 80.2642C76.0447 98.3615 85 122.907 85 148.5C85 174.093 76.0447 198.639 60.1041 216.736C44.1635 234.833 22.5434 245 -3.57628e-07 245L-1.03922e-05 148.5L-6.17405e-06 52Z" fill="white" fill-opacity="0.1"/>
</svg>
