<svg width="467" height="465" viewBox="0 0 467 465" fill="none" xmlns="http://www.w3.org/2000/svg">
<circle cx="185.932" cy="372.342" r="92.4849" transform="rotate(90 185.932 372.342)" fill="white" fill-opacity="0.1"/>
<circle cx="373.805" cy="184.857" r="93" transform="rotate(90 373.805 184.857)" fill="white" fill-opacity="0.1"/>
<path opacity="0.1" d="M93.447 -1.14259C93.447 11.0704 95.8525 23.1637 100.526 34.447C105.2 45.7303 112.05 55.9825 120.686 64.6184C129.322 73.2542 139.574 80.1045 150.857 84.7782C162.141 89.4519 174.234 91.8574 186.447 91.8574C198.66 91.8574 210.753 89.4519 222.037 84.7782C233.32 80.1045 243.572 73.2542 252.208 64.6183C260.844 55.9825 267.694 45.7302 272.368 34.4469C277.042 23.1637 279.447 11.0703 279.447 -1.14262L186.447 -1.14259L93.447 -1.14259Z" fill="white"/>
<path opacity="0.1" d="M-0.000984192 278.021C12.2596 278.021 24.4002 275.606 35.7275 270.914C47.0548 266.222 57.3471 259.345 66.0167 250.676C74.6862 242.006 81.5633 231.714 86.2552 220.386C90.9472 209.059 93.3621 196.919 93.3621 184.658C93.362 172.397 90.9471 160.257 86.2552 148.929C81.5633 137.602 74.6862 127.31 66.0166 118.64C57.3471 109.971 47.0548 103.094 35.7275 98.4018C24.4001 93.7098 12.2596 91.2949 -0.0010234 91.2949L-0.000992354 184.658L-0.000984192 278.021Z" fill="white"/>
<rect opacity="0.2" x="280.115" y="91.3535" width="186.664" height="186.666" transform="rotate(90 280.115 91.3535)" fill="white"/>
<path d="M466.778 278.018L367.334 374.741L280.115 464.682L280.115 278.018L466.778 278.018Z" fill="white" fill-opacity="0.15"/>
<path d="M280.115 91.3535L379.559 -5.36907L466.779 -95.31L466.779 91.3535L280.115 91.3535Z" fill="white" fill-opacity="0.15"/>
</svg>
