<svg width="215" height="61" viewBox="0 0 215 61" fill="none" xmlns="http://www.w3.org/2000/svg">
<path d="M106.103 14.152V31H101.999V20.896L98.2313 31H94.9193L91.1273 20.872V31H87.0233V14.152H91.8713L96.5993 25.816L101.279 14.152H106.103ZM111.119 16.216C110.399 16.216 109.807 16.008 109.343 15.592C108.895 15.16 108.671 14.632 108.671 14.008C108.671 13.368 108.895 12.84 109.343 12.424C109.807 11.992 110.399 11.776 111.119 11.776C111.823 11.776 112.399 11.992 112.847 12.424C113.311 12.84 113.543 13.368 113.543 14.008C113.543 14.632 113.311 15.16 112.847 15.592C112.399 16.008 111.823 16.216 111.119 16.216ZM113.159 17.608V31H109.055V17.608H113.159ZM124.293 17.464C125.861 17.464 127.109 17.976 128.037 19C128.981 20.008 129.453 21.4 129.453 23.176V31H125.373V23.728C125.373 22.832 125.141 22.136 124.677 21.64C124.213 21.144 123.589 20.896 122.805 20.896C122.021 20.896 121.397 21.144 120.933 21.64C120.469 22.136 120.237 22.832 120.237 23.728V31H116.133V17.608H120.237V19.384C120.653 18.792 121.213 18.328 121.917 17.992C122.621 17.64 123.413 17.464 124.293 17.464ZM144.929 24.088C144.929 24.472 144.905 24.872 144.857 25.288H135.569C135.633 26.12 135.897 26.76 136.361 27.208C136.841 27.64 137.425 27.856 138.113 27.856C139.137 27.856 139.849 27.424 140.249 26.56H144.617C144.393 27.44 143.985 28.232 143.393 28.936C142.817 29.64 142.089 30.192 141.209 30.592C140.329 30.992 139.345 31.192 138.257 31.192C136.945 31.192 135.777 30.912 134.753 30.352C133.729 29.792 132.929 28.992 132.353 27.952C131.777 26.912 131.489 25.696 131.489 24.304C131.489 22.912 131.769 21.696 132.329 20.656C132.905 19.616 133.705 18.816 134.729 18.256C135.753 17.696 136.929 17.416 138.257 17.416C139.553 17.416 140.705 17.688 141.713 18.232C142.721 18.776 143.505 19.552 144.065 20.56C144.641 21.568 144.929 22.744 144.929 24.088ZM140.729 23.008C140.729 22.304 140.489 21.744 140.009 21.328C139.529 20.912 138.929 20.704 138.209 20.704C137.521 20.704 136.937 20.904 136.457 21.304C135.993 21.704 135.705 22.272 135.593 23.008H140.729ZM151.198 19.84C151.678 19.104 152.278 18.528 152.998 18.112C153.718 17.68 154.518 17.464 155.398 17.464V21.808H154.27C153.246 21.808 152.478 22.032 151.966 22.48C151.454 22.912 151.198 23.68 151.198 24.784V31H147.094V17.608H151.198V19.84ZM163.383 27.16L166.287 17.608H170.655L165.903 31H160.839L156.087 17.608H160.479L163.383 27.16ZM171.567 24.28C171.567 22.904 171.823 21.696 172.335 20.656C172.863 19.616 173.575 18.816 174.471 18.256C175.367 17.696 176.367 17.416 177.471 17.416C178.415 17.416 179.239 17.608 179.943 17.992C180.663 18.376 181.215 18.88 181.599 19.504V17.608H185.703V31H181.599V29.104C181.199 29.728 180.639 30.232 179.919 30.616C179.215 31 178.391 31.192 177.447 31.192C176.359 31.192 175.367 30.912 174.471 30.352C173.575 29.776 172.863 28.968 172.335 27.928C171.823 26.872 171.567 25.656 171.567 24.28ZM181.599 24.304C181.599 23.28 181.311 22.472 180.735 21.88C180.175 21.288 179.487 20.992 178.671 20.992C177.855 20.992 177.159 21.288 176.583 21.88C176.023 22.456 175.743 23.256 175.743 24.28C175.743 25.304 176.023 26.12 176.583 26.728C177.159 27.32 177.855 27.616 178.671 27.616C179.487 27.616 180.175 27.32 180.735 26.728C181.311 26.136 181.599 25.328 181.599 24.304ZM70.5988 42.27V43.572H68.0088V52H66.4128V43.572H63.8088V42.27H70.5988ZM73.8112 45.406C74.0445 45.014 74.3525 44.7107 74.7352 44.496C75.1272 44.272 75.5892 44.16 76.1212 44.16V45.812H75.7152C75.0898 45.812 74.6138 45.9707 74.2872 46.288C73.9698 46.6053 73.8112 47.156 73.8112 47.94V52H72.2152V44.286H73.8112V45.406ZM84.5742 44.286V52H82.9782V51.09C82.7262 51.4073 82.3949 51.6593 81.9842 51.846C81.5829 52.0233 81.1535 52.112 80.6962 52.112C80.0895 52.112 79.5435 51.986 79.0582 51.734C78.5822 51.482 78.2042 51.1087 77.9242 50.614C77.6535 50.1193 77.5182 49.522 77.5182 48.822V44.286H79.1002V48.584C79.1002 49.2747 79.2729 49.8067 79.6182 50.18C79.9635 50.544 80.4349 50.726 81.0322 50.726C81.6295 50.726 82.1009 50.544 82.4462 50.18C82.8009 49.8067 82.9782 49.2747 82.9782 48.584V44.286H84.5742ZM89.48 52.126C88.8733 52.126 88.3273 52.0187 87.842 51.804C87.366 51.58 86.988 51.2813 86.708 50.908C86.428 50.5253 86.2787 50.1007 86.26 49.634H87.912C87.94 49.9607 88.094 50.236 88.374 50.46C88.6633 50.6747 89.0227 50.782 89.452 50.782C89.9 50.782 90.2453 50.698 90.488 50.53C90.74 50.3527 90.866 50.1287 90.866 49.858C90.866 49.5687 90.726 49.354 90.446 49.214C90.1753 49.074 89.7413 48.92 89.144 48.752C88.5653 48.5933 88.094 48.4393 87.73 48.29C87.366 48.1407 87.0487 47.912 86.778 47.604C86.5167 47.296 86.386 46.89 86.386 46.386C86.386 45.9753 86.5073 45.602 86.75 45.266C86.9927 44.9207 87.338 44.65 87.786 44.454C88.2433 44.258 88.766 44.16 89.354 44.16C90.2313 44.16 90.936 44.384 91.468 44.832C92.0093 45.2707 92.2987 45.8727 92.336 46.638H90.74C90.712 46.2927 90.572 46.0173 90.32 45.812C90.068 45.6067 89.7273 45.504 89.298 45.504C88.878 45.504 88.556 45.5833 88.332 45.742C88.108 45.9007 87.996 46.1107 87.996 46.372C87.996 46.5773 88.0707 46.75 88.22 46.89C88.3693 47.03 88.5513 47.142 88.766 47.226C88.9807 47.3007 89.298 47.3987 89.718 47.52C90.278 47.6693 90.7353 47.8233 91.09 47.982C91.454 48.1313 91.7667 48.3553 92.028 48.654C92.2893 48.9527 92.4247 49.3493 92.434 49.844C92.434 50.2827 92.3127 50.6747 92.07 51.02C91.8273 51.3653 91.482 51.636 91.034 51.832C90.5953 52.028 90.0773 52.126 89.48 52.126ZM96.0205 45.588V49.858C96.0205 50.1473 96.0859 50.3573 96.2165 50.488C96.3565 50.6093 96.5899 50.67 96.9165 50.67H97.8965V52H96.6365C95.9179 52 95.3672 51.832 94.9845 51.496C94.6019 51.16 94.4105 50.614 94.4105 49.858V45.588H93.5005V44.286H94.4105V42.368H96.0205V44.286H97.8965V45.588H96.0205ZM106.438 47.954C106.438 48.2433 106.419 48.5047 106.382 48.738H100.488C100.534 49.354 100.763 49.8487 101.174 50.222C101.584 50.5953 102.088 50.782 102.686 50.782C103.544 50.782 104.151 50.4227 104.506 49.704H106.228C105.994 50.4133 105.57 50.9967 104.954 51.454C104.347 51.902 103.591 52.126 102.686 52.126C101.948 52.126 101.286 51.9627 100.698 51.636C100.119 51.3 99.6615 50.8333 99.3255 50.236C98.9988 49.6293 98.8355 48.9293 98.8355 48.136C98.8355 47.3427 98.9942 46.6473 99.3115 46.05C99.6382 45.4433 100.091 44.9767 100.67 44.65C101.258 44.3233 101.93 44.16 102.686 44.16C103.414 44.16 104.062 44.3187 104.632 44.636C105.201 44.9533 105.644 45.4013 105.962 45.98C106.279 46.5493 106.438 47.2073 106.438 47.954ZM104.772 47.45C104.762 46.862 104.552 46.3907 104.142 46.036C103.731 45.6813 103.222 45.504 102.616 45.504C102.065 45.504 101.594 45.6813 101.202 46.036C100.81 46.3813 100.576 46.8527 100.502 47.45H104.772ZM107.476 48.108C107.476 47.3333 107.635 46.6473 107.952 46.05C108.279 45.4527 108.717 44.9907 109.268 44.664C109.828 44.328 110.449 44.16 111.13 44.16C111.634 44.16 112.129 44.272 112.614 44.496C113.109 44.7107 113.501 45 113.79 45.364V41.64H115.4V52H113.79V50.838C113.529 51.2113 113.165 51.5193 112.698 51.762C112.241 52.0047 111.713 52.126 111.116 52.126C110.444 52.126 109.828 51.958 109.268 51.622C108.717 51.2767 108.279 50.8007 107.952 50.194C107.635 49.578 107.476 48.8827 107.476 48.108ZM113.79 48.136C113.79 47.604 113.678 47.142 113.454 46.75C113.239 46.358 112.955 46.0593 112.6 45.854C112.245 45.6487 111.863 45.546 111.452 45.546C111.041 45.546 110.659 45.6487 110.304 45.854C109.949 46.05 109.66 46.344 109.436 46.736C109.221 47.1187 109.114 47.576 109.114 48.108C109.114 48.64 109.221 49.1067 109.436 49.508C109.66 49.9093 109.949 50.2173 110.304 50.432C110.668 50.6373 111.051 50.74 111.452 50.74C111.863 50.74 112.245 50.6373 112.6 50.432C112.955 50.2267 113.239 49.928 113.454 49.536C113.678 49.1347 113.79 48.668 113.79 48.136ZM120.601 47.114C120.601 46.162 120.82 45.308 121.259 44.552C121.707 43.796 122.309 43.208 123.065 42.788C123.83 42.3587 124.666 42.144 125.571 42.144C126.607 42.144 127.526 42.4007 128.329 42.914C129.141 43.418 129.729 44.1367 130.093 45.07H128.175C127.923 44.5567 127.573 44.174 127.125 43.922C126.677 43.67 126.159 43.544 125.571 43.544C124.927 43.544 124.353 43.6887 123.849 43.978C123.345 44.2673 122.948 44.6827 122.659 45.224C122.379 45.7653 122.239 46.3953 122.239 47.114C122.239 47.8327 122.379 48.4627 122.659 49.004C122.948 49.5453 123.345 49.9653 123.849 50.264C124.353 50.5533 124.927 50.698 125.571 50.698C126.159 50.698 126.677 50.572 127.125 50.32C127.573 50.068 127.923 49.6853 128.175 49.172H130.093C129.729 50.1053 129.141 50.824 128.329 51.328C127.526 51.832 126.607 52.084 125.571 52.084C124.656 52.084 123.821 51.874 123.065 51.454C122.309 51.0247 121.707 50.432 121.259 49.676C120.82 48.92 120.601 48.066 120.601 47.114ZM135.307 52.126C134.579 52.126 133.921 51.9627 133.333 51.636C132.745 51.3 132.283 50.8333 131.947 50.236C131.611 49.6293 131.443 48.9293 131.443 48.136C131.443 47.352 131.616 46.6567 131.961 46.05C132.307 45.4433 132.778 44.9767 133.375 44.65C133.973 44.3233 134.64 44.16 135.377 44.16C136.115 44.16 136.782 44.3233 137.379 44.65C137.977 44.9767 138.448 45.4433 138.793 46.05C139.139 46.6567 139.311 47.352 139.311 48.136C139.311 48.92 139.134 49.6153 138.779 50.222C138.425 50.8287 137.939 51.3 137.323 51.636C136.717 51.9627 136.045 52.126 135.307 52.126ZM135.307 50.74C135.718 50.74 136.101 50.642 136.455 50.446C136.819 50.25 137.113 49.956 137.337 49.564C137.561 49.172 137.673 48.696 137.673 48.136C137.673 47.576 137.566 47.1047 137.351 46.722C137.137 46.33 136.852 46.036 136.497 45.84C136.143 45.644 135.76 45.546 135.349 45.546C134.939 45.546 134.556 45.644 134.201 45.84C133.856 46.036 133.581 46.33 133.375 46.722C133.17 47.1047 133.067 47.576 133.067 48.136C133.067 48.9667 133.277 49.6107 133.697 50.068C134.127 50.516 134.663 50.74 135.307 50.74ZM144.781 44.16C145.388 44.16 145.929 44.286 146.405 44.538C146.89 44.79 147.268 45.1633 147.539 45.658C147.81 46.1527 147.945 46.75 147.945 47.45V52H146.363V47.688C146.363 46.9973 146.19 46.47 145.845 46.106C145.5 45.7327 145.028 45.546 144.431 45.546C143.834 45.546 143.358 45.7327 143.003 46.106C142.658 46.47 142.485 46.9973 142.485 47.688V52H140.889V44.286H142.485V45.168C142.746 44.8507 143.078 44.6033 143.479 44.426C143.89 44.2487 144.324 44.16 144.781 44.16ZM153.873 44.16C154.479 44.16 155.021 44.286 155.497 44.538C155.982 44.79 156.36 45.1633 156.631 45.658C156.901 46.1527 157.037 46.75 157.037 47.45V52H155.455V47.688C155.455 46.9973 155.282 46.47 154.937 46.106C154.591 45.7327 154.12 45.546 153.523 45.546C152.925 45.546 152.449 45.7327 152.095 46.106C151.749 46.47 151.577 46.9973 151.577 47.688V52H149.981V44.286H151.577V45.168C151.838 44.8507 152.169 44.6033 152.571 44.426C152.981 44.2487 153.415 44.16 153.873 44.16ZM166.143 47.954C166.143 48.2433 166.124 48.5047 166.087 48.738H160.193C160.239 49.354 160.468 49.8487 160.879 50.222C161.289 50.5953 161.793 50.782 162.391 50.782C163.249 50.782 163.856 50.4227 164.211 49.704H165.933C165.699 50.4133 165.275 50.9967 164.659 51.454C164.052 51.902 163.296 52.126 162.391 52.126C161.653 52.126 160.991 51.9627 160.403 51.636C159.824 51.3 159.367 50.8333 159.031 50.236C158.704 49.6293 158.541 48.9293 158.541 48.136C158.541 47.3427 158.699 46.6473 159.017 46.05C159.343 45.4433 159.796 44.9767 160.375 44.65C160.963 44.3233 161.635 44.16 162.391 44.16C163.119 44.16 163.767 44.3187 164.337 44.636C164.906 44.9533 165.349 45.4013 165.667 45.98C165.984 46.5493 166.143 47.2073 166.143 47.954ZM164.477 47.45C164.467 46.862 164.257 46.3907 163.847 46.036C163.436 45.6813 162.927 45.504 162.321 45.504C161.77 45.504 161.299 45.6813 160.907 46.036C160.515 46.3813 160.281 46.8527 160.207 47.45H164.477ZM167.181 48.136C167.181 47.3427 167.34 46.6473 167.657 46.05C167.984 45.4433 168.432 44.9767 169.001 44.65C169.571 44.3233 170.224 44.16 170.961 44.16C171.895 44.16 172.665 44.384 173.271 44.832C173.887 45.2707 174.303 45.9007 174.517 46.722H172.795C172.655 46.3393 172.431 46.0407 172.123 45.826C171.815 45.6113 171.428 45.504 170.961 45.504C170.308 45.504 169.785 45.7373 169.393 46.204C169.011 46.6613 168.819 47.3053 168.819 48.136C168.819 48.9667 169.011 49.6153 169.393 50.082C169.785 50.5487 170.308 50.782 170.961 50.782C171.885 50.782 172.497 50.376 172.795 49.564H174.517C174.293 50.348 173.873 50.9733 173.257 51.44C172.641 51.8973 171.876 52.126 170.961 52.126C170.224 52.126 169.571 51.9627 169.001 51.636C168.432 51.3 167.984 50.8333 167.657 50.236C167.34 49.6293 167.181 48.9293 167.181 48.136ZM177.97 45.588V49.858C177.97 50.1473 178.035 50.3573 178.166 50.488C178.306 50.6093 178.539 50.67 178.866 50.67H179.846V52H178.586C177.867 52 177.316 51.832 176.934 51.496C176.551 51.16 176.36 50.614 176.36 49.858V45.588H175.45V44.286H176.36V42.368H177.97V44.286H179.846V45.588H177.97ZM182.129 43.264C181.839 43.264 181.597 43.166 181.401 42.97C181.205 42.774 181.107 42.5313 181.107 42.242C181.107 41.9527 181.205 41.71 181.401 41.514C181.597 41.318 181.839 41.22 182.129 41.22C182.409 41.22 182.647 41.318 182.843 41.514C183.039 41.71 183.137 41.9527 183.137 42.242C183.137 42.5313 183.039 42.774 182.843 42.97C182.647 43.166 182.409 43.264 182.129 43.264ZM182.913 44.286V52H181.317V44.286H182.913ZM188.354 52.126C187.626 52.126 186.968 51.9627 186.38 51.636C185.792 51.3 185.33 50.8333 184.994 50.236C184.658 49.6293 184.49 48.9293 184.49 48.136C184.49 47.352 184.663 46.6567 185.008 46.05C185.353 45.4433 185.825 44.9767 186.422 44.65C187.019 44.3233 187.687 44.16 188.424 44.16C189.161 44.16 189.829 44.3233 190.426 44.65C191.023 44.9767 191.495 45.4433 191.84 46.05C192.185 46.6567 192.358 47.352 192.358 48.136C192.358 48.92 192.181 49.6153 191.826 50.222C191.471 50.8287 190.986 51.3 190.37 51.636C189.763 51.9627 189.091 52.126 188.354 52.126ZM188.354 50.74C188.765 50.74 189.147 50.642 189.502 50.446C189.866 50.25 190.16 49.956 190.384 49.564C190.608 49.172 190.72 48.696 190.72 48.136C190.72 47.576 190.613 47.1047 190.398 46.722C190.183 46.33 189.899 46.036 189.544 45.84C189.189 45.644 188.807 45.546 188.396 45.546C187.985 45.546 187.603 45.644 187.248 45.84C186.903 46.036 186.627 46.33 186.422 46.722C186.217 47.1047 186.114 47.576 186.114 48.136C186.114 48.9667 186.324 49.6107 186.744 50.068C187.173 50.516 187.71 50.74 188.354 50.74ZM197.828 44.16C198.435 44.16 198.976 44.286 199.452 44.538C199.937 44.79 200.315 45.1633 200.586 45.658C200.857 46.1527 200.992 46.75 200.992 47.45V52H199.41V47.688C199.41 46.9973 199.237 46.47 198.892 46.106C198.547 45.7327 198.075 45.546 197.478 45.546C196.881 45.546 196.405 45.7327 196.05 46.106C195.705 46.47 195.532 46.9973 195.532 47.688V52H193.936V44.286H195.532V45.168C195.793 44.8507 196.125 44.6033 196.526 44.426C196.937 44.2487 197.371 44.16 197.828 44.16ZM205.828 52.126C205.221 52.126 204.675 52.0187 204.19 51.804C203.714 51.58 203.336 51.2813 203.056 50.908C202.776 50.5253 202.626 50.1007 202.608 49.634H204.26C204.288 49.9607 204.442 50.236 204.722 50.46C205.011 50.6747 205.37 50.782 205.8 50.782C206.248 50.782 206.593 50.698 206.836 50.53C207.088 50.3527 207.214 50.1287 207.214 49.858C207.214 49.5687 207.074 49.354 206.794 49.214C206.523 49.074 206.089 48.92 205.492 48.752C204.913 48.5933 204.442 48.4393 204.078 48.29C203.714 48.1407 203.396 47.912 203.126 47.604C202.864 47.296 202.734 46.89 202.734 46.386C202.734 45.9753 202.855 45.602 203.098 45.266C203.34 44.9207 203.686 44.65 204.134 44.454C204.591 44.258 205.114 44.16 205.702 44.16C206.579 44.16 207.284 44.384 207.816 44.832C208.357 45.2707 208.646 45.8727 208.684 46.638H207.088C207.06 46.2927 206.92 46.0173 206.668 45.812C206.416 45.6067 206.075 45.504 205.646 45.504C205.226 45.504 204.904 45.5833 204.68 45.742C204.456 45.9007 204.344 46.1107 204.344 46.372C204.344 46.5773 204.418 46.75 204.568 46.89C204.717 47.03 204.899 47.142 205.114 47.226C205.328 47.3007 205.646 47.3987 206.066 47.52C206.626 47.6693 207.083 47.8233 207.438 47.982C207.802 48.1313 208.114 48.3553 208.376 48.654C208.637 48.9527 208.772 49.3493 208.782 49.844C208.782 50.2827 208.66 50.6747 208.418 51.02C208.175 51.3653 207.83 51.636 207.382 51.832C206.943 52.028 206.425 52.126 205.828 52.126Z" fill="#364152"/>
<path d="M13.0397 26.9995L27.2615 13.0316M26.9403 48.282L12.8449 34.1866M47.7019 27.521L33.6065 13.4256M33.8645 47.3164L48.0863 33.3485M23.3169 10.1831L30.5 3L37.6831 10.1831L30.5 17.3662L23.3169 10.1831ZM43.6338 30.5L50.8169 23.3169L58 30.5L50.8169 37.6831L43.6338 30.5ZM3 30.5L10.1831 23.3169L17.3662 30.5L10.1831 37.6831L3 30.5ZM23.3169 50.8169L30.5 43.6338L37.6831 50.8169L30.5 58L23.3169 50.8169Z" stroke="#fad85d" stroke-width="3"/>
</svg>
