<svg width="500" height="343" viewBox="0 0 500 343" fill="none" xmlns="http://www.w3.org/2000/svg">
<path d="M500 297.32H0V297.57H500V297.32Z" fill="#EBEBEB"/>
<path d="M449.9 313.41H416.78V313.66H449.9V313.41Z" fill="#EBEBEB"/>
<path d="M331.22 316.13H322.53V316.38H331.22V316.13Z" fill="#EBEBEB"/>
<path d="M415.78 304.13H396.59V304.38H415.78V304.13Z" fill="#EBEBEB"/>
<path d="M95.65 305.81H52.46V306.06H95.65V305.81Z" fill="#EBEBEB"/>
<path d="M110.89 305.81H104.56V306.06H110.89V305.81Z" fill="#EBEBEB"/>
<path d="M225.15 310.03H131.47V310.28H225.15V310.03Z" fill="#EBEBEB"/>
<path d="M327.93 49.6503C331.22 44.2003 339.8 39.7903 347.17 39.7903C348.73 39.7654 350.283 40.009 351.76 40.5103C357.058 36.3346 363.558 33.9718 370.3 33.7703C378.04 33.7703 382.12 37.7703 380.55 43.1703C387.61 43.5203 390.72 48.0103 387.47 53.4903C384.09 59.2103 375.11 63.8403 367.41 63.8403H323.06C317.61 63.8403 315.12 60.5603 317.52 56.5103C319.37 53.3803 323.59 50.7103 327.93 49.6503Z" fill="white"/>
<path d="M238.46 23.7703C240.46 20.4403 245.71 17.7703 250.2 17.7703C251.152 17.7506 252.1 17.8996 253 18.2103C256.237 15.6567 260.209 14.2122 264.33 14.0903C269.05 14.0903 271.54 16.5503 270.58 19.8303C274.89 20.0403 276.79 22.8303 274.81 26.1303C272.83 29.4303 267.26 32.4503 262.56 32.4503H235.49C232.16 32.4503 230.64 30.4503 232.1 27.9703C233.62 25.8238 235.889 24.3252 238.46 23.7703Z" fill="white"/>
<path d="M108.47 43.4603C110.47 40.1303 115.72 37.4603 120.21 37.4603C121.16 37.4484 122.104 37.6042 123 37.9203C126.232 35.3656 130.202 33.9209 134.32 33.8003C139.04 33.8003 141.53 36.2503 140.57 39.5403C144.88 39.7503 146.78 42.5403 144.8 45.8403C142.82 49.1403 137.25 52.1503 132.55 52.1503H105.5C102.17 52.1503 100.65 50.1503 102.12 47.6803C103.636 45.5305 105.901 44.0253 108.47 43.4603Z" fill="white"/>
<path d="M91.1499 271.23C90.6312 271.226 90.1284 271.05 89.7199 270.73C89.2422 270.349 88.9349 269.794 88.8656 269.187C88.7962 268.579 88.9704 267.969 89.3499 267.49C90.6599 265.84 87.4799 262.02 84.1199 257.97C76.9499 249.36 66.1199 236.33 80.9099 221.4C90.2399 211.97 90.0399 208.07 89.5199 206.83C88.5999 204.65 84.3399 204.17 82.8499 204.17C82.2373 204.17 81.6497 203.927 81.2165 203.494C80.7833 203.061 80.5399 202.473 80.5399 201.86C80.5399 201.248 80.7833 200.66 81.2165 200.227C81.6497 199.794 82.2373 199.55 82.8499 199.55C83.7099 199.55 91.5499 199.62 93.8499 205.03C95.8499 209.72 92.7099 216.13 84.2799 224.65C72.4399 236.6 80.5799 246.39 87.7599 255.02C92.3499 260.55 96.6899 265.77 93.0499 270.35C92.826 270.637 92.5369 270.867 92.2064 271.02C91.876 271.173 91.5138 271.245 91.1499 271.23Z" fill="#E0E0E0"/>
<path d="M57.77 250.44H106.99L96.09 297.32H68.67L57.77 250.44Z" fill="#F5F5F5"/>
<path d="M57.2602 252.53H107.5C108.055 252.53 108.588 252.31 108.982 251.919C109.375 251.527 109.598 250.995 109.6 250.44C109.598 249.884 109.375 249.352 108.982 248.958C108.589 248.565 108.056 248.343 107.5 248.34H57.2602C56.704 248.343 56.1714 248.565 55.7781 248.958C55.3849 249.352 55.1628 249.884 55.1602 250.44C55.1628 250.995 55.3852 251.527 55.7788 251.919C56.1723 252.31 56.7049 252.53 57.2602 252.53Z" fill="#EBEBEB"/>
<path d="M99.6798 201.06L53.1698 216.42C53.1698 216.42 36.3198 205.04 48.5598 199.92C42.7398 189.99 41.9998 170.63 60.7298 165.01C79.4598 159.39 78.1498 186.76 78.1498 186.76C78.1498 186.76 101.24 162.33 100.15 191.35C104.56 190.14 123.25 194.56 99.6798 201.06Z" fill="#E0E0E0"/>
<path d="M60.86 222.09H117.26C117.26 222.09 132.14 211.59 116.56 212.09C119.65 198.7 110.93 184.03 91.25 183.47C71.57 182.91 78.49 204.74 78.49 204.74C78.49 204.74 45.43 196.86 55.49 213.14C39.05 213.92 47.53 218.15 60.86 222.09Z" fill="#E6E6E6"/>
<path d="M105.89 225.12L61.5898 226.72C60.4326 226.734 59.2908 226.455 58.2711 225.907C57.2515 225.36 56.3874 224.563 55.7598 223.59C54.0798 221.21 53.6498 218.26 60.7598 217.39C58.4898 210.39 63.4998 198.18 81.8198 197.24C100.14 196.3 90.9498 213.24 90.9498 213.24C90.9498 213.24 118.66 201.14 109.2 219.13C113.44 218.97 128.77 224.3 105.89 225.12Z" fill="#E0E0E0"/>
<path d="M391.64 211.97H159.24V216.42H391.64V211.97Z" fill="#F0F0F0"/>
<path d="M391.64 216.42H416.78V211.97H391.64V216.42Z" fill="#E6E6E6"/>
<path d="M162.74 218.65L412.9 218.65V216.42L162.74 216.42V218.65Z" fill="#E0E0E0"/>
<path d="M162.73 217.54V297.32H165.19V217.54H162.73Z" fill="#E0E0E0"/>
<path d="M389.17 217.53V297.31H391.63V217.53H389.17Z" fill="#E0E0E0"/>
<path d="M410.43 217.54V297.32H412.89V217.54H410.43Z" fill="#E0E0E0"/>
<path d="M183.98 217.54V297.32H186.44V217.54H183.98Z" fill="#E0E0E0"/>
<path d="M250 342.48C357.082 342.48 443.89 337.412 443.89 331.16C443.89 324.908 357.082 319.84 250 319.84C142.917 319.84 56.1099 324.908 56.1099 331.16C56.1099 337.412 142.917 342.48 250 342.48Z" fill="#F5F5F5"/>
<path d="M394.61 169.5H243.32V173.78H394.61V169.5Z" fill="#0016FE"/>
<path opacity="0.2" d="M394.61 169.5H359.5V173.78H394.61V169.5Z" fill="black"/>
<path d="M363.84 333.66L355.94 173.77H357.92L365.82 333.66H363.84Z" fill="#0016FE"/>
<path opacity="0.7" d="M363.84 333.66L355.94 173.77H357.92L365.82 333.66H363.84Z" fill="white"/>
<path d="M398.95 333.66L391.04 173.77H393.03L400.93 333.66H398.95Z" fill="#0016FE"/>
<path d="M398.95 333.66L391.04 173.77H393.03L400.93 333.66H398.95Z" fill="#0016FE"/>
<path opacity="0.7" d="M398.95 333.66L391.04 173.77H393.03L400.93 333.66H398.95Z" fill="white"/>
<path d="M274.08 333.66L281.99 173.77H280L272.1 333.66H274.08Z" fill="#0016FE"/>
<path opacity="0.7" d="M274.08 333.66L281.99 173.77H280L272.1 333.66H274.08Z" fill="white"/>
<path d="M238.98 333.66L246.88 173.77H244.9L236.99 333.66H238.98Z" fill="#0016FE"/>
<path opacity="0.7" d="M238.98 333.66L246.88 173.77H244.9L236.99 333.66H238.98Z" fill="white"/>
<path d="M332.4 136.92H381C381.36 136.911 381.717 136.982 382.045 137.129C382.374 137.276 382.665 137.495 382.897 137.769C383.129 138.044 383.297 138.367 383.388 138.715C383.478 139.063 383.489 139.427 383.42 139.78L379.33 166.68C379.193 167.462 378.791 168.173 378.192 168.694C377.593 169.214 376.834 169.513 376.04 169.54H327.44C327.08 169.55 326.723 169.478 326.394 169.331C326.066 169.185 325.774 168.966 325.541 168.692C325.308 168.417 325.139 168.094 325.048 167.746C324.956 167.398 324.943 167.034 325.01 166.68L329.1 139.78C329.241 138.999 329.646 138.289 330.246 137.768C330.846 137.248 331.606 136.949 332.4 136.92Z" fill="#0016FE"/>
<path d="M331.65 136.92H380.29C380.65 136.911 381.007 136.982 381.335 137.129C381.664 137.276 381.955 137.495 382.187 137.769C382.419 138.044 382.587 138.367 382.678 138.715C382.768 139.063 382.779 139.427 382.71 139.78L378.62 166.68C378.483 167.462 378.081 168.173 377.482 168.694C376.883 169.214 376.124 169.513 375.33 169.54H326.69C326.33 169.55 325.973 169.478 325.644 169.331C325.316 169.185 325.024 168.966 324.791 168.692C324.558 168.417 324.389 168.094 324.298 167.746C324.206 167.398 324.193 167.034 324.26 166.68L328.35 139.78C328.49 138.998 328.893 138.287 329.494 137.766C330.095 137.246 330.856 136.947 331.65 136.92Z" fill="#0016FE"/>
<path opacity="0.2" d="M331.65 136.92H380.29C380.65 136.911 381.007 136.982 381.335 137.129C381.664 137.276 381.955 137.495 382.187 137.769C382.419 138.044 382.587 138.367 382.678 138.715C382.768 139.063 382.779 139.427 382.71 139.78L378.62 166.68C378.483 167.462 378.081 168.173 377.482 168.694C376.883 169.214 376.124 169.513 375.33 169.54H326.69C326.33 169.55 325.973 169.478 325.644 169.331C325.316 169.185 325.024 168.966 324.791 168.692C324.558 168.417 324.389 168.094 324.298 167.746C324.206 167.398 324.193 167.034 324.26 166.68L328.35 139.78C328.49 138.998 328.893 138.287 329.494 137.766C330.095 137.246 330.856 136.947 331.65 136.92Z" fill="white"/>
<path opacity="0.8" d="M326.69 168.64C326.459 168.647 326.229 168.603 326.017 168.511C325.804 168.42 325.614 168.283 325.46 168.11C325.308 167.926 325.197 167.711 325.137 167.479C325.076 167.248 325.067 167.006 325.11 166.77L329.2 139.92C329.31 139.342 329.611 138.817 330.055 138.43C330.5 138.044 331.062 137.818 331.65 137.79H380.29C380.521 137.784 380.751 137.828 380.964 137.919C381.176 138.011 381.366 138.148 381.52 138.32C381.671 138.505 381.78 138.721 381.838 138.953C381.897 139.184 381.904 139.426 381.86 139.66L377.78 166.56C377.671 167.139 377.369 167.664 376.925 168.05C376.48 168.437 375.918 168.662 375.33 168.69L326.69 168.64Z" fill="white"/>
<path d="M312.49 168.43H377C377.135 168.426 377.269 168.453 377.392 168.508C377.515 168.562 377.624 168.644 377.712 168.747C377.799 168.85 377.862 168.971 377.897 169.101C377.931 169.231 377.936 169.368 377.91 169.5H311.25C311.303 169.207 311.455 168.94 311.68 168.745C311.906 168.551 312.192 168.439 312.49 168.43Z" fill="#0016FE"/>
<path d="M259.26 320.7L252.89 324.29L245.01 309.03L251.38 305.44L259.26 320.7Z" fill="#FFB573"/>
<path d="M252.12 323.03L259.54 319.38C259.6 319.347 259.667 319.326 259.735 319.318C259.804 319.311 259.873 319.317 259.939 319.337C260.005 319.356 260.066 319.389 260.12 319.432C260.173 319.476 260.218 319.529 260.25 319.59L263.49 325.28C263.644 325.588 263.671 325.945 263.564 326.272C263.457 326.6 263.226 326.872 262.92 327.03C260.31 328.25 259 328.71 255.74 330.31C253.74 331.31 248.95 333.76 246.18 335.13C243.41 336.5 242.18 333.71 243.18 332.88C247.9 329.18 250.02 326.38 251.18 323.99C251.373 323.571 251.705 323.232 252.12 323.03Z" fill="#263238"/>
<path opacity="0.2" d="M251.38 305.44L245.01 309.03L249.07 316.9L255.64 313.68L251.38 305.44Z" fill="black"/>
<path d="M246.19 155.85C246.19 155.85 225.62 197.2 219.45 217.39C212.7 239.5 244.77 314.33 244.77 314.33L256.48 309.2C256.48 309.2 235.48 235.09 239.13 226.87C249.13 204.17 272.49 156.33 272.49 156.33L246.19 155.85Z" fill="#263238"/>
<path opacity="0.3" d="M253.93 180.64C248.32 190.05 245.93 207.01 245.58 218.04C248.75 211.22 252.15 204.12 255.33 197.52C257.47 191.23 259.55 185.17 261.49 179.98C261.06 176.39 258.18 173.49 253.93 180.64Z" fill="black"/>
<path d="M257.99 310.07L245.2 316.77L241.53 312.44L256.67 304.38L257.99 310.07Z" fill="#0016FE"/>
<path d="M250.34 325.33C250.924 325.022 251.473 324.654 251.98 324.23C252.008 324.211 252.028 324.182 252.039 324.15C252.05 324.118 252.05 324.083 252.04 324.05C252.032 324.018 252.014 323.989 251.989 323.968C251.964 323.946 251.933 323.933 251.9 323.93C251.62 323.88 249.12 323.52 248.47 324.24C248.396 324.321 248.344 324.42 248.317 324.526C248.291 324.633 248.292 324.744 248.32 324.85C248.351 325.015 248.424 325.169 248.53 325.298C248.637 325.427 248.774 325.528 248.93 325.59C249.416 325.681 249.918 325.588 250.34 325.33ZM251.45 324.21C250.38 325.03 249.5 325.42 249.04 325.27C248.938 325.228 248.848 325.16 248.782 325.072C248.715 324.984 248.673 324.88 248.66 324.77C248.643 324.719 248.64 324.665 248.65 324.612C248.661 324.56 248.685 324.511 248.72 324.47C249.07 324.09 250.44 324.1 251.45 324.21Z" fill="#0016FE"/>
<path d="M252 324.25C252.024 324.239 252.044 324.222 252.06 324.2C252.077 324.175 252.086 324.146 252.086 324.115C252.086 324.085 252.077 324.055 252.06 324.03C252.06 323.95 251.25 321.98 250.26 321.66C250.135 321.619 250.002 321.607 249.872 321.626C249.741 321.645 249.617 321.694 249.51 321.77C249.378 321.837 249.273 321.947 249.213 322.081C249.153 322.216 249.141 322.368 249.18 322.51C249.38 323.3 251.04 324.2 251.89 324.27L252 324.25ZM249.78 322.02C249.842 321.991 249.911 321.976 249.98 321.976C250.049 321.976 250.117 321.991 250.18 322.02C250.77 322.21 251.35 323.27 251.64 323.9C250.83 323.7 249.64 322.98 249.53 322.45C249.53 322.35 249.53 322.22 249.71 322.09L249.78 322.02Z" fill="#0016FE"/>
<path d="M260.1 100.41C258.82 103 257.53 105.28 256.1 107.62C254.67 109.96 253.22 112.21 251.62 114.43C250.84 115.55 250.01 116.64 249.2 117.74C248.39 118.84 247.5 119.91 246.58 120.96C244.776 123.126 242.843 125.179 240.79 127.11C240.29 127.61 239.7 128.11 239.16 128.56C238.618 129.059 238.05 129.53 237.46 129.97L235.65 131.31C235.45 131.44 235.5 131.43 234.89 131.83C234.411 132.13 233.902 132.379 233.37 132.57C232.299 132.951 231.157 133.087 230.027 132.968C228.896 132.849 227.807 132.477 226.84 131.88C226.348 131.572 225.892 131.209 225.48 130.8C225.277 130.592 225.086 130.372 224.91 130.14C224.763 129.964 224.63 129.776 224.51 129.58C224.052 128.8 223.651 127.988 223.31 127.15C222.726 125.71 222.258 124.225 221.91 122.71C221.306 119.977 220.902 117.203 220.7 114.41C220.491 111.692 220.438 108.964 220.54 106.24C220.568 105.466 220.875 104.727 221.404 104.161C221.933 103.594 222.649 103.237 223.419 103.156C224.19 103.074 224.965 103.274 225.6 103.717C226.236 104.161 226.69 104.819 226.88 105.57V105.68C227.997 110.486 229.43 115.213 231.17 119.83C231.555 120.813 232.02 121.763 232.56 122.67C232.76 123.021 232.987 123.356 233.24 123.67C233.31 123.77 233.24 123.58 233.13 123.5C233.056 123.399 232.976 123.302 232.89 123.21C232.714 123.02 232.512 122.855 232.29 122.72C231.882 122.449 231.416 122.278 230.93 122.22C230.459 122.163 229.982 122.207 229.53 122.35C229.11 122.44 228.42 122.97 228.88 122.58L230.08 121.44C230.87 120.66 231.67 119.82 232.44 118.97C235.57 115.285 238.434 111.382 241.01 107.29C242.33 105.21 243.64 103.09 244.9 100.96C246.16 98.8302 247.44 96.5902 248.56 94.5702L248.64 94.4302C249.436 92.9158 250.8 91.7796 252.434 91.2713C254.067 90.7631 255.836 90.9246 257.35 91.7202C258.864 92.5159 260.001 93.8805 260.509 95.514C261.017 97.1474 260.856 98.9158 260.06 100.43L260.1 100.41Z" fill="#263238"/>
<path opacity="0.3" d="M242.44 117.92C241.822 120.882 241.487 123.895 241.44 126.92C241.77 126.6 242.08 126.28 242.39 125.92C244.849 123.409 247.138 120.737 249.24 117.92C250.113 116.774 250.953 115.607 251.76 114.42C252.26 113.15 252.76 111.88 253.14 110.59C253.28 110.16 253.41 109.75 253.54 109.32C250.29 107.7 244.39 109.29 242.44 117.92Z" fill="black"/>
<path d="M226.06 102.99L225.25 97.8202L218.82 100.82C219.305 102.526 219.955 104.18 220.76 105.76C220.945 106.131 221.215 106.453 221.549 106.699C221.882 106.945 222.27 107.108 222.679 107.176C223.088 107.243 223.507 107.212 223.901 107.086C224.296 106.96 224.656 106.742 224.95 106.45C225.403 106.008 225.741 105.461 225.935 104.858C226.128 104.255 226.171 103.614 226.06 102.99Z" fill="#FFB573"/>
<path d="M221.63 94.3502L216.83 97.6602L218.82 100.78L225.25 97.8202L221.63 94.3502Z" fill="#FFB573"/>
<path d="M238.84 330.4L231.67 328.76L234.55 311.93L241.72 313.57L238.84 330.4Z" fill="#FFB573"/>
<path d="M231.48 327.84L239.54 329.69C239.608 329.702 239.672 329.728 239.73 329.765C239.788 329.802 239.838 329.851 239.877 329.907C239.916 329.964 239.944 330.028 239.958 330.095C239.972 330.163 239.973 330.233 239.96 330.3L238.89 336.77C238.815 337.108 238.611 337.402 238.321 337.589C238.03 337.777 237.678 337.842 237.34 337.77C234.55 337.07 233.25 336.6 229.7 335.77C227.52 335.27 221.46 334.12 218.45 333.43C215.44 332.74 216.21 329.78 217.55 329.8C223.55 329.91 227.76 329.12 230.15 327.99C230.564 327.794 231.032 327.741 231.48 327.84Z" fill="#263238"/>
<path opacity="0.2" d="M241.72 313.58L234.54 311.93L233.06 320.61L240.24 322.25L241.72 313.58Z" fill="black"/>
<path d="M260.56 156.11C260.56 156.11 248.71 205.41 245.16 226.22C241.28 249 230.46 317.84 230.46 317.84L243.6 320.84C243.6 320.84 260 255.21 265.89 233.12C272.29 209.12 285.55 180.12 285.55 156.57C277.61 156.57 260.56 156.11 260.56 156.11Z" fill="#263238"/>
<path d="M244.13 320.97L228.11 317.3L228.47 312.13L245.78 316.92L244.13 320.97Z" fill="#0016FE"/>
<path d="M228.65 328.51C229.308 328.641 229.978 328.701 230.65 328.69C230.683 328.69 230.716 328.681 230.744 328.663C230.772 328.645 230.795 328.62 230.81 328.59C230.829 328.562 230.839 328.529 230.839 328.495C230.839 328.461 230.829 328.428 230.81 328.4C230.62 328.19 228.91 326.34 227.95 326.48C227.84 326.498 227.737 326.543 227.65 326.611C227.562 326.679 227.494 326.768 227.45 326.87C227.365 327.014 227.321 327.178 227.321 327.345C227.321 327.512 227.365 327.676 227.45 327.82C227.755 328.186 228.18 328.43 228.65 328.51ZM230.22 328.34C228.88 328.34 227.94 328.05 227.68 327.64C227.625 327.544 227.597 327.436 227.597 327.325C227.597 327.215 227.625 327.106 227.68 327.01C227.701 326.962 227.734 326.919 227.776 326.886C227.818 326.853 227.867 326.83 227.92 326.82C228.45 326.74 229.51 327.62 230.22 328.34Z" fill="#0016FE"/>
<path d="M230.59 328.69H230.67C230.698 328.684 230.724 328.671 230.745 328.652C230.766 328.632 230.782 328.608 230.79 328.58C230.79 328.5 231.45 326.47 230.88 325.58C230.809 325.469 230.714 325.376 230.601 325.309C230.488 325.241 230.361 325.2 230.23 325.19C230.086 325.159 229.935 325.179 229.804 325.247C229.673 325.314 229.569 325.425 229.51 325.56C229.16 326.3 229.89 328.04 230.51 328.63L230.59 328.69ZM230.27 325.55C230.337 325.565 230.401 325.593 230.458 325.632C230.515 325.672 230.563 325.722 230.6 325.78C230.849 326.557 230.849 327.393 230.6 328.17C230.047 327.476 229.785 326.594 229.87 325.71C229.87 325.62 229.99 325.51 230.24 325.54L230.27 325.55Z" fill="#0016FE"/>
<path d="M250.38 96.1102C250.783 94.8857 251.509 93.7922 252.48 92.9442C253.451 92.0962 254.632 91.5249 255.9 91.2902C257.723 90.8893 259.57 90.6087 261.43 90.4502C267.008 90.2303 272.594 90.3304 278.16 90.7502C281.07 90.9502 284.04 91.3602 286.41 91.7502H286.49C287.109 91.8523 287.702 92.0777 288.233 92.4131C288.764 92.7485 289.222 93.1871 289.58 93.7028C289.938 94.2185 290.189 94.8009 290.318 95.4154C290.447 96.0299 290.451 96.6641 290.33 97.2802C288.294 107.102 286.901 117.047 286.16 127.05C285.32 141.6 285.89 153.05 285.55 156.56L246.19 155.84C244.44 120.26 247.83 104.16 250.38 96.1102Z" fill="white"/>
<path d="M277.05 90.0402C275.05 97.7102 262.41 111.3 260.88 132.65C261.44 144.36 260.97 152.35 262.41 160.19L286.51 159.55C286.88 155.84 284.15 143.91 285.94 131.82C287.68 120.1 290.15 104.16 291.55 97.0402C291.671 96.3941 291.664 95.7303 291.529 95.0869C291.394 94.4434 291.133 93.833 290.761 93.2906C290.39 92.7481 289.915 92.2843 289.364 91.9256C288.813 91.5669 288.196 91.3204 287.55 91.2002H287.46C284.96 90.7902 281.83 90.3502 278.76 90.1502L277.05 90.0402Z" fill="#263238"/>
<path opacity="0.2" d="M282.67 148.02C282.631 148.02 282.593 148.01 282.558 147.993C282.524 147.976 282.493 147.951 282.47 147.92C279.966 144.613 278.002 140.931 276.65 137.01C276.639 136.979 276.634 136.945 276.636 136.912C276.638 136.879 276.647 136.846 276.662 136.817C276.677 136.787 276.698 136.76 276.723 136.738C276.748 136.717 276.778 136.7 276.81 136.69C276.875 136.671 276.944 136.679 277.004 136.71C277.064 136.742 277.109 136.796 277.13 136.86C278.458 140.729 280.396 144.362 282.87 147.62C282.909 147.673 282.926 147.74 282.917 147.806C282.908 147.871 282.873 147.93 282.82 147.97C282.775 148 282.723 148.017 282.67 148.02Z" fill="white"/>
<path opacity="0.3" d="M285.69 106.01C283.97 113.01 284.56 122.7 285.99 131.54C287.46 121.62 289.45 108.74 290.86 100.76C289.19 99.6202 287.05 100.43 285.69 106.01Z" fill="black"/>
<path d="M248.36 96.2502C248.805 94.8851 249.598 93.6594 250.661 92.6934C251.723 91.7274 253.018 91.0543 254.42 90.7402C257.049 90.3751 259.696 90.1515 262.35 90.0702C260.11 97.3302 261.42 118.58 262.41 135.35C259.41 143.81 259.64 150.02 259.59 160.19L243.1 158.75C241.3 121.44 245.89 103.03 248.36 96.2502Z" fill="#263238"/>
<path d="M262.22 90.4002C267.11 89.3402 268.02 86.4002 267.75 83.0402C267.689 82.2104 267.575 81.3854 267.41 80.5702L273.6 75.5702L278.14 71.9402C276.8 77.3002 275.22 87.1002 278.8 90.7602C278.8 90.7602 275.69 95.6702 267.38 95.0702C260.35 94.6102 262.22 90.4002 262.22 90.4002Z" fill="#FFB573"/>
<path d="M269.52 93.8802L268.14 95.1602L272.4 96.7702L271.89 95.1402L269.52 93.8802Z" fill="#E0E0E0"/>
<path d="M271.07 98.9702C271.07 98.9702 271.07 94.7802 269.52 93.8802C272.696 93.1219 275.613 91.5306 277.97 89.2702L280.5 90.2702C280.5 90.2702 279.57 95.1102 271.07 98.9702Z" fill="#F5F5F5"/>
<path d="M267.17 93.5502L268.14 95.1602L263.61 95.5502L264.55 94.1202L267.17 93.5502Z" fill="#E0E0E0"/>
<path d="M263.32 98.1102C263.551 97.0982 264.022 96.1563 264.691 95.363C265.361 94.5698 266.211 93.9482 267.17 93.5502C264.73 92.8202 264.66 89.4302 264.66 89.4302L262.27 89.8902C262.27 89.8902 259.82 94.4102 263.32 98.1102Z" fill="#F5F5F5"/>
<path opacity="0.2" d="M267.41 80.5702C267.576 81.3854 267.69 82.2104 267.75 83.0402C270.03 82.6202 273.11 80.2602 273.47 77.9402C273.601 77.1743 273.644 76.396 273.6 75.6202L267.41 80.5702Z" fill="black"/>
<path d="M259.06 56.0602C258.347 57.3802 258.002 58.8677 258.062 60.3668C258.122 61.8659 258.584 63.3212 259.4 64.5802L264.3 58.4802L259.06 56.0602Z" fill="#263238"/>
<path d="M278.83 62.8302C278.48 70.1502 278.65 74.4302 275.02 78.3602C273.854 79.6453 272.359 80.5878 270.697 81.0858C269.035 81.5839 267.268 81.6187 265.588 81.1865C263.907 80.7543 262.377 79.8714 261.161 78.6332C259.945 77.395 259.091 75.8484 258.69 74.1602C257.04 67.6802 257.88 56.8002 264.97 53.5502C266.487 52.8072 268.173 52.4759 269.858 52.5894C271.544 52.703 273.17 53.2575 274.573 54.1974C275.977 55.1372 277.109 56.4294 277.856 57.9445C278.603 59.4596 278.939 61.1445 278.83 62.8302Z" fill="#FFB573"/>
<path d="M283.33 55.2902C280.17 45.1702 248.66 39.9402 260.88 57.0602L274.28 55.2302L274.78 58.6702C275.462 61.3618 276.379 63.9885 277.52 66.5202L276.96 69.6302L277.54 74.6902C277.54 74.6902 283.11 68.5102 285.93 65.5802C290.15 61.2202 285.87 55.0402 283.33 55.2902Z" fill="#263238"/>
<path d="M259.32 57.2902C262.82 59.8702 271.97 60.3602 271.97 60.3602C271.344 59.008 270.384 57.8378 269.18 56.9602C272.85 59.3402 276.11 62.0802 282.24 62.3102C281.42 60.0459 280.147 57.9721 278.5 56.2152C276.853 54.4582 274.866 53.0547 272.66 52.0902C265.28 48.7802 252.75 52.4602 259.32 57.2902Z" fill="#263238"/>
<path d="M281.86 46.3302C281.86 46.3302 280.5 47.2502 280.19 50.4502C279.88 53.6502 283.12 57.7802 283.12 57.7802L283.92 55.7302C280.89 51.8202 281.86 46.3302 281.86 46.3302Z" fill="#263238"/>
<path d="M280.88 68.3502C280.255 69.8084 279.146 71.006 277.74 71.7402C275.95 72.6202 275 71.0002 275.46 69.0202C275.87 67.2402 277.31 64.6402 279.13 64.5802C280.95 64.5202 281.66 66.5102 280.88 68.3502Z" fill="#FFB573"/>
<path d="M267.65 65.5502C267.65 66.1402 267.35 66.6402 266.97 66.6602C266.59 66.6802 266.26 66.2102 266.25 65.6102C266.24 65.0102 266.55 64.5202 266.94 64.5002C267.33 64.4802 267.64 64.9202 267.65 65.5502Z" fill="#263238"/>
<path d="M261 65.9202C261 66.5202 260.7 67.0102 260.31 67.0302C259.92 67.0502 259.6 66.5802 259.6 66.0302C259.6 65.4802 259.9 64.9402 260.28 64.9202C260.66 64.9002 260.94 65.2802 261 65.9202Z" fill="#263238"/>
<path d="M263.24 65.9202C262.557 67.7758 261.629 69.5314 260.48 71.1402C260.895 71.411 261.365 71.5873 261.855 71.6564C262.346 71.7255 262.846 71.6859 263.32 71.5402L263.24 65.9202Z" fill="#ED893E"/>
<path d="M265.76 73.0202C266.441 72.9164 267.093 72.6748 267.678 72.3103C268.263 71.9458 268.767 71.466 269.16 70.9002C269.183 70.8613 269.191 70.8149 269.182 70.7704C269.173 70.7259 269.147 70.6865 269.11 70.6602C269.09 70.6477 269.068 70.6393 269.045 70.6356C269.023 70.6319 268.999 70.6328 268.977 70.6384C268.954 70.6441 268.933 70.6542 268.915 70.6683C268.896 70.6823 268.881 70.7 268.87 70.7202C268.424 71.3162 267.85 71.805 267.191 72.151C266.532 72.4971 265.804 72.6915 265.06 72.7202C265.013 72.7252 264.969 72.7474 264.938 72.7825C264.907 72.8176 264.889 72.8631 264.89 72.9102C264.895 72.9544 264.916 72.9952 264.949 73.0248C264.982 73.0543 265.025 73.0705 265.07 73.0702C265.301 73.0699 265.531 73.0532 265.76 73.0202Z" fill="#263238"/>
<path d="M270.67 63.0002C270.728 62.99 270.783 62.966 270.83 62.9302C270.901 62.8716 270.946 62.7872 270.956 62.6955C270.965 62.6037 270.938 62.512 270.88 62.4402C270.547 62.0044 270.112 61.657 269.613 61.4286C269.115 61.2002 268.568 61.0977 268.02 61.1302C267.97 61.1298 267.921 61.1399 267.876 61.1599C267.83 61.1799 267.79 61.2094 267.757 61.2463C267.723 61.2832 267.699 61.3267 267.684 61.374C267.668 61.4213 267.664 61.4712 267.669 61.5205C267.675 61.5698 267.691 61.6173 267.717 61.6599C267.742 61.7024 267.776 61.7391 267.817 61.7675C267.858 61.7958 267.904 61.8152 267.953 61.8243C268.002 61.8334 268.052 61.832 268.1 61.8202C268.526 61.7973 268.951 61.8761 269.341 62.05C269.73 62.2239 270.073 62.4879 270.34 62.8202C270.37 62.8802 270.418 62.9296 270.477 62.9618C270.536 62.9939 270.603 63.0073 270.67 63.0002Z" fill="#263238"/>
<path d="M258 63.7902C258.056 63.7806 258.109 63.7574 258.155 63.7225C258.2 63.6877 258.236 63.6422 258.26 63.5902C258.439 63.1737 258.713 62.8049 259.061 62.5132C259.408 62.2215 259.819 62.015 260.26 61.9102C260.305 61.903 260.348 61.8868 260.386 61.8626C260.425 61.8385 260.458 61.8068 260.484 61.7695C260.511 61.7322 260.529 61.69 260.538 61.6455C260.548 61.6009 260.548 61.5549 260.54 61.5102C260.525 61.4188 260.475 61.3369 260.4 61.2826C260.325 61.2282 260.231 61.2058 260.14 61.2202C259.597 61.3535 259.092 61.6106 258.666 61.9715C258.239 62.3323 257.901 62.7871 257.68 63.3002C257.654 63.3575 257.644 63.4206 257.651 63.483C257.658 63.5454 257.682 63.6047 257.72 63.6548C257.757 63.7049 257.808 63.7439 257.866 63.7678C257.924 63.7916 257.988 63.7993 258.05 63.7902H258Z" fill="#263238"/>
<path d="M292.67 95.5402C293.34 97.0402 293.91 98.4002 294.46 99.8302C295.01 101.26 295.56 102.68 296.08 104.11C297.08 106.97 298.08 109.88 298.88 112.83C300.675 118.846 301.835 125.033 302.34 131.29C302.675 137.336 302.675 143.395 302.34 149.44C302.05 155.44 301.58 161.31 300.79 167.24C300.685 168.018 300.3 168.731 299.707 169.245C299.114 169.759 298.353 170.038 297.568 170.031C296.783 170.023 296.028 169.73 295.445 169.205C294.861 168.68 294.49 167.96 294.4 167.18C293.75 161.34 293.24 155.48 292.71 149.67C292.45 146.764 292.17 143.874 291.87 141C291.6 138.13 291.24 135.28 290.87 132.57C289.911 127.135 288.52 121.784 286.71 116.57C285.81 113.9 284.88 111.22 283.89 108.57C282.9 105.92 281.84 103.2 280.89 100.69L280.83 100.55C280.252 98.9889 280.3 97.2651 280.963 95.738C281.625 94.211 282.852 92.9987 284.386 92.3538C285.921 91.709 287.645 91.6815 289.2 92.277C290.754 92.8725 292.019 94.0451 292.73 95.5502L292.67 95.5402Z" fill="#263238"/>
<path d="M294.5 166.74L290.33 168.74L297.4 171.27C297.4 171.27 302.19 169.76 299.94 167.12L298.68 166.72C296.63 166.03 295.62 166.1 294.5 166.74Z" fill="#FFB573"/>
<path d="M287.94 173.22L295.41 174.65L297.4 171.23L290.33 168.7L287.94 173.22Z" fill="#FFB573"/>
<path d="M174.82 0.0302734H141.27V1.15028H174.82V0.0302734Z" fill="#0016FE"/>
<path d="M122.72 5.92026L121.9 5.15026C123.439 3.51293 125.298 2.21052 127.363 1.32441C129.428 0.438292 131.653 -0.012475 133.9 0.000262606V1.11026C131.806 1.09851 129.731 1.51971 127.807 2.34743C125.884 3.17515 124.151 4.39153 122.72 5.92026Z" fill="#0016FE"/>
<path d="M133.94 3.92027H198.08C201.694 3.97926 205.155 5.38453 207.787 7.86106C210.419 10.3376 212.032 13.7071 212.31 17.3103L214.74 55.7103L215.52 68.1703L202.28 55.7203H137.22C133.609 55.6613 130.151 54.2571 127.521 51.7824C124.891 49.3077 123.279 45.9407 123 42.3403L121.42 17.3403C121.286 15.6197 121.51 13.8899 122.08 12.2608C122.65 10.6317 123.552 9.13879 124.729 7.87687C125.906 6.61495 127.333 5.61157 128.919 4.93044C130.504 4.24932 132.214 3.90531 133.94 3.92027Z" fill="#0016FE"/>
<path d="M137.33 22.2702H197.94C198.227 22.2724 198.512 22.215 198.775 22.1019C199.039 21.9887 199.277 21.8221 199.473 21.6127C199.669 21.4032 199.82 21.1553 199.916 20.8847C200.012 20.6141 200.051 20.3266 200.03 20.0402C199.98 19.4396 199.71 18.8787 199.27 18.4666C198.83 18.0545 198.253 17.8206 197.65 17.8102H137.05C136.763 17.8081 136.479 17.8654 136.215 17.9786C135.951 18.0918 135.713 18.2583 135.517 18.4678C135.321 18.6773 135.17 18.9251 135.074 19.1957C134.978 19.4664 134.939 19.7539 134.96 20.0402C135.007 20.64 135.276 21.2008 135.714 21.6131C136.152 22.0254 136.728 22.2597 137.33 22.2702Z" fill="white"/>
<path d="M138 32.5503H198.61C198.897 32.5524 199.182 32.4951 199.446 32.3819C199.709 32.2687 199.947 32.1022 200.143 31.8927C200.34 31.6832 200.49 31.4354 200.586 31.1647C200.682 30.8941 200.721 30.6066 200.7 30.3203C200.653 29.7188 200.383 29.1566 199.942 28.7441C199.502 28.3316 198.924 28.0984 198.32 28.0903H137.7C137.413 28.0866 137.128 28.1429 136.863 28.2556C136.598 28.3682 136.36 28.5348 136.164 28.7446C135.967 28.9544 135.816 29.2028 135.721 29.4741C135.626 29.7454 135.588 30.0336 135.61 30.3203C135.658 30.9235 135.929 31.487 136.372 31.8998C136.814 32.3125 137.395 32.5446 138 32.5503Z" fill="white"/>
<path d="M159.27 42.8303H199.27C199.558 42.8325 199.844 42.7749 200.108 42.6612C200.373 42.5474 200.611 42.3799 200.807 42.1693C201.004 41.9588 201.154 41.7097 201.249 41.4379C201.345 41.1661 201.382 40.8774 201.36 40.5903C201.315 39.9897 201.047 39.4276 200.608 39.0149C200.17 38.6021 199.592 38.3686 198.99 38.3603H159C158.713 38.3582 158.429 38.4155 158.165 38.5287C157.901 38.6418 157.663 38.8084 157.467 39.0179C157.271 39.2273 157.12 39.4752 157.024 39.7458C156.928 40.0164 156.889 40.3039 156.91 40.5903C156.953 41.191 157.218 41.7541 157.655 42.1687C158.092 42.5833 158.668 42.8193 159.27 42.8303Z" fill="white"/>
<path d="M156.69 68.1802H92.55C90.8249 68.16 89.1145 68.4989 87.5274 69.1752C85.9403 69.8516 84.5113 70.8506 83.331 72.1089C82.1508 73.3672 81.2452 74.8572 80.6717 76.4843C80.0983 78.1114 79.8695 79.84 80 81.5602L81.8 109.72L82.58 122.17L94.25 109.72H159.31C161.035 109.738 162.744 109.396 164.33 108.718C165.916 108.04 167.344 107.04 168.523 105.781C169.702 104.522 170.606 103.032 171.179 101.405C171.752 99.7783 171.98 98.0501 171.85 96.3302L170.92 81.5602C170.641 77.9581 169.028 74.5897 166.396 72.1148C163.764 69.6399 160.302 68.2368 156.69 68.1802Z" fill="#0016FE"/>
<path opacity="0.5" d="M156.69 68.1802H92.55C90.8249 68.16 89.1145 68.4989 87.5274 69.1752C85.9403 69.8516 84.5113 70.8506 83.331 72.1089C82.1508 73.3672 81.2452 74.8572 80.6717 76.4843C80.0983 78.1114 79.8695 79.84 80 81.5602L81.8 109.72L82.58 122.17L94.25 109.72H159.31C161.035 109.738 162.744 109.396 164.33 108.718C165.916 108.04 167.344 107.04 168.523 105.781C169.702 104.522 170.606 103.032 171.179 101.405C171.752 99.7783 171.98 98.0501 171.85 96.3302L170.92 81.5602C170.641 77.9581 169.028 74.5897 166.396 72.1148C163.764 69.6399 160.302 68.2368 156.69 68.1802Z" fill="white"/>
<path d="M155.62 86.5202H94.9999C94.3984 86.5097 93.8223 86.2754 93.3841 85.8631C92.946 85.4508 92.6771 84.89 92.6299 84.2902C92.6092 84.0039 92.648 83.7164 92.7439 83.4458C92.8397 83.1751 92.9905 82.9273 93.1869 82.7178C93.3832 82.5083 93.6207 82.3418 93.8846 82.2286C94.1484 82.1154 94.4329 82.0581 94.7199 82.0602H155.32C155.923 82.0684 156.502 82.3015 156.942 82.7141C157.382 83.1266 157.653 83.6887 157.7 84.2902C157.721 84.5757 157.682 84.8624 157.587 85.1324C157.492 85.4023 157.342 85.6497 157.146 85.859C156.951 86.0683 156.715 86.2351 156.452 86.3489C156.19 86.4626 155.906 86.521 155.62 86.5202Z" fill="white"/>
<path d="M135.63 96.8203H95.63C95.0274 96.8099 94.4502 96.576 94.0104 96.1639C93.5705 95.7518 93.2996 95.191 93.25 94.5903C93.2293 94.3039 93.2681 94.0164 93.364 93.7458C93.4598 93.4752 93.6107 93.2273 93.807 93.0178C94.0033 92.8084 94.2409 92.6418 94.5047 92.5287C94.7685 92.4155 95.053 92.3582 95.34 92.3603H135.34C135.943 92.3663 136.522 92.5991 136.961 93.0123C137.4 93.4255 137.667 93.9888 137.71 94.5903C137.731 94.8758 137.692 95.1625 137.597 95.4324C137.502 95.7023 137.352 95.9497 137.157 96.159C136.961 96.3683 136.725 96.5351 136.462 96.6489C136.2 96.7627 135.916 96.821 135.63 96.8203Z" fill="white"/>
<path d="M141.42 122.17H205.55C209.164 122.227 212.626 123.632 215.259 126.108C217.891 128.585 219.504 131.956 219.78 135.56L221.68 165.56L222.47 178.01L209.23 165.56H144.16C140.546 165.501 137.085 164.096 134.453 161.619C131.821 159.143 130.208 155.773 129.93 152.17L128.88 135.52C128.755 133.804 128.988 132.08 129.563 130.458C130.139 128.836 131.044 127.35 132.223 126.096C133.401 124.841 134.827 123.845 136.41 123.169C137.993 122.493 139.699 122.153 141.42 122.17Z" fill="#0016FE"/>
<path d="M170.05 142.28C170.142 143.549 170.707 144.736 171.633 145.608C172.559 146.481 173.778 146.974 175.05 146.99C175.657 146.998 176.26 146.878 176.818 146.64C177.377 146.402 177.881 146.051 178.296 145.608C178.712 145.165 179.031 144.64 179.233 144.067C179.435 143.495 179.516 142.886 179.47 142.28C179.373 141.013 178.807 139.828 177.882 138.957C176.957 138.086 175.74 137.591 174.47 137.57C173.862 137.561 173.259 137.68 172.699 137.917C172.14 138.155 171.636 138.506 171.22 138.949C170.804 139.393 170.485 139.918 170.284 140.491C170.082 141.065 170.003 141.674 170.05 142.28Z" fill="white"/>
<path d="M154.34 143.86C154.432 145.129 154.997 146.316 155.923 147.188C156.849 148.06 158.068 148.554 159.34 148.57C159.947 148.578 160.549 148.458 161.107 148.22C161.666 147.982 162.168 147.63 162.583 147.187C162.998 146.744 163.316 146.22 163.517 145.647C163.718 145.074 163.797 144.465 163.75 143.86C163.653 142.593 163.087 141.408 162.162 140.537C161.237 139.666 160.02 139.171 158.75 139.15C158.143 139.143 157.541 139.262 156.983 139.5C156.424 139.738 155.922 140.09 155.507 140.533C155.092 140.976 154.774 141.501 154.573 142.074C154.372 142.647 154.293 143.255 154.34 143.86Z" fill="white"/>
<path d="M186.1 146.23C186.197 147.497 186.763 148.682 187.688 149.553C188.613 150.424 189.83 150.919 191.1 150.94C191.707 150.948 192.309 150.829 192.867 150.59C193.426 150.352 193.928 150.001 194.343 149.557C194.758 149.114 195.076 148.59 195.277 148.017C195.478 147.444 195.557 146.835 195.51 146.23C195.417 144.962 194.852 143.774 193.927 142.902C193.001 142.03 191.782 141.537 190.51 141.52C189.903 141.514 189.302 141.635 188.744 141.873C188.187 142.112 187.685 142.464 187.27 142.906C186.856 143.349 186.537 143.873 186.336 144.445C186.135 145.018 186.054 145.625 186.1 146.23Z" fill="white"/>
</svg>
